<?xml version="1.0" standalone="no"?>
<!DOCTYPE svg PUBLIC "-//W3C//DTD SVG 1.1//EN" "http://www.w3.org/Graphics/SVG/1.1/DTD/svg11.dtd" >
<svg xmlns="http://www.w3.org/2000/svg">
<metadata></metadata>
<defs>
<font id="unionbold" horiz-adv-x="1138" >
<font-face units-per-em="2048" ascent="1536" descent="-512" />
<missing-glyph horiz-adv-x="552" />
<glyph unicode="&#xfb01;" horiz-adv-x="1251" d="M16 852v209h164l2 121q0 80 33 141q68 124 252 147q39 5 94 5q68 0 154 -21l-19 -207q-63 13 -116 13q-60 0 -86.5 -31t-26.5 -101v-67h205v-209h-205v-852h-287v852h-164zM829 0v1061h287v-1061h-287zM829 1214v250h287v-250h-287z" />
<glyph unicode="&#xfb02;" horiz-adv-x="1251" d="M16 852v209h164l2 121q0 80 33 141q68 124 252 147q39 5 94 5q68 0 154 -21l-19 -207q-63 13 -116 13q-60 0 -86.5 -31t-26.5 -101v-67h205v-209h-205v-852h-287v852h-164zM829 0v1464h287v-1464h-287z" />
<glyph horiz-adv-x="0" />
<glyph horiz-adv-x="682" />
<glyph unicode=" "  horiz-adv-x="552" />
<glyph unicode="&#x09;" horiz-adv-x="552" />
<glyph unicode="&#xa0;" horiz-adv-x="552" />
<glyph unicode="!" horiz-adv-x="630" d="M164 1096v368h303v-368l-76 -688h-153zM166 0v297h301v-297h-301z" />
<glyph unicode="&#x22;" horiz-adv-x="960" d="M143 1231v233h263v-344q-20 -205 -23 -246h-213q-15 178 -27 357zM559 1120v344h262v-233q-16 -238 -26 -357h-213q-3 41 -23 246z" />
<glyph unicode="#" d="M43 385v203h186l50 274h-205v203h239l70 397h211l-70 -397h211l66 397h215l-68 -397h146v-203h-181l-47 -274h197v-203h-234l-67 -397h-211l65 397h-208l-68 -397h-213l68 397h-152zM442 588h209l49 274h-211z" />
<glyph unicode="$" d="M33 442l276 15q6 -93 59 -158t130 -88v424q-17 5 -49.5 16.5t-42.5 14.5q-157 51 -245.5 147.5t-88.5 255.5q0 180 123 297q115 109 303 125v127h133v-127q177 -21 287.5 -119.5t130.5 -273.5l-273 -17q-6 71 -46.5 120.5t-98.5 58.5v-375q32 -7 108 -33 q172 -62 248 -137q104 -106 107 -262q0 -59 -4 -86q-9 -63 -38 -123.5t-81 -119.5t-140 -100t-200 -51v-180h-133v178q-410 39 -465 471zM342 1090q0 -121 156 -168v340q-67 -9 -111.5 -56t-44.5 -116zM631 203q80 11 137 64.5t57 135.5q0 74 -44.5 118t-149.5 75v-393z" />
<glyph unicode="%" horiz-adv-x="1933" d="M123 1079q0 186 86.5 292t247.5 106q167 0 249 -105.5t82 -296.5q0 -184 -85.5 -284.5t-247.5 -100.5q-167 0 -249.5 101t-82.5 288zM336 1079q0 -116 26 -172q27 -59 91 -59q65 0 92 59q26 53 26 170q0 119 -24 176q-28 68 -90 68q-44 0 -72 -31q-49 -54 -49 -211z M469 -49l815 1534h189l-809 -1534h-195zM1145 352q0 184 87 287.5t249 103.5q167 0 248 -103t81 -292q0 -185 -85 -288t-246 -103q-168 0 -251 103t-83 292zM1360 350q0 -119 24 -174q27 -63 93 -63q41 0 71 30q47 49 47 207q0 50 -4 86.5t-15 73.5t-35 56.5t-60 19.5 q-48 0 -74 -29q-47 -52 -47 -207z" />
<glyph unicode="&#x26;" horiz-adv-x="1441" d="M78 406q0 276 332 436q-72 85 -109 161t-37 156q0 101 57 177t145.5 112.5t192.5 36.5q110 0 199.5 -37.5t146 -117t56.5 -187.5q0 -64 -18 -115.5t-58 -95.5t-79.5 -74.5t-106.5 -73.5l194 -249q52 82 60 170l252 -29q-46 -216 -134 -332l265 -256l-265 -106 q-97 68 -178 155q-91 -85 -190.5 -124.5t-229.5 -39.5q-139 0 -250.5 50t-178 149.5t-66.5 233.5zM360 408q0 -86 61 -142.5t152 -56.5q70 0 129 29t123 90l-266 329q-91 -43 -145 -107.5t-54 -141.5zM532 1167q0 -52 52 -120q4 -5 30.5 -39t42.5 -52q45 28 82 62 q72 69 72 135q0 57 -39.5 96t-101.5 39q-60 0 -99 -35t-39 -86z" />
<glyph unicode="'" horiz-adv-x="528" d="M133 1176v288h262v-288q-6 -108 -22 -302h-213q-13 160 -27 302z" />
<glyph unicode="(" horiz-adv-x="645" d="M106 539q0 293 99 569q76 215 194 385h219q-116 -238 -178 -483q-53 -215 -53 -463q0 -305 94 -619q42 -140 133 -329h-217q-140 221 -215.5 463.5t-75.5 476.5z" />
<glyph unicode=")" horiz-adv-x="645" d="M27 -401q56 108 106 247q117 333 123 693q3 192 -43 417q-51 257 -186 537h217q141 -216 217 -455t76 -479q0 -205 -54 -420q-74 -296 -237 -540h-219z" />
<glyph unicode="*" horiz-adv-x="815" d="M37 1151l55 168q112 -44 234 -105q-13 159 -13 263h172q0 -115 -14 -263q91 46 246 99l53 -168q-136 -40 -250 -66q46 -51 166 -200l-145 -101q-103 151 -144 217q-59 -99 -141 -221l-143 109q102 123 170 196q-69 16 -246 72z" />
<glyph unicode="+" horiz-adv-x="1212" d="M92 500v241h395v396h238v-396h395v-241h-395v-394h-238v394h-395z" />
<glyph unicode="," horiz-adv-x="569" d="M121 -201q75 17 114 70t39 131h-143v297h303v-289q0 -59 -20 -117q-28 -83 -96.5 -141.5t-167.5 -83.5z" />
<glyph unicode="-" horiz-adv-x="747" d="M82 412v266h584v-266h-584z" />
<glyph unicode="." horiz-adv-x="569" d="M135 0v297h301v-297h-301z" />
<glyph unicode="/" horiz-adv-x="663" d="M-12 -29l467 1522h221l-469 -1522h-219z" />
<glyph unicode="0" d="M68 723q0 405 149 590q124 153 350 153q230 0 355 -155q149 -182 149 -588q0 -409 -149 -594q-126 -156 -355 -156q-224 0 -356 162q-143 176 -143 588zM360 723q0 -235 27 -336q46 -178 180 -178q135 0 183 172q28 101 28 342q0 234 -28 330q-25 90 -69 134t-114 44 q-67 0 -112.5 -44.5t-65.5 -127.5q-29 -113 -29 -336z" />
<glyph unicode="1" d="M156 883v241q56 9 108 25t106 43.5t95 63t70.5 86t37.5 110.5h232v-1452h-287v1012q-152 -106 -362 -129z" />
<glyph unicode="2" d="M47 0q6 163 92 301q33 53 113 124t165.5 138.5t168 141t135.5 155.5t53 158q0 98 -51 152.5t-145 54.5q-76 0 -127 -42t-71.5 -102t-21.5 -135l-278 15q7 237 141 371t363 134q111 0 198.5 -31.5t138 -78t84 -107t45 -112t11.5 -99.5q0 -80 -23.5 -152.5t-65 -130 t-92.5 -109t-111.5 -100t-116 -92.5t-112 -97t-94.5 -103h619v-254h-1018z" />
<glyph unicode="3" d="M57 440l273 17q9 -113 69 -180.5t162 -67.5q94 0 156.5 65t62.5 170q0 108 -59.5 163t-149.5 57q-77 0 -118 -7l14 215h29q106 0 173.5 46t67.5 147q0 80 -50 123t-132 43q-90 0 -144 -61t-59 -164l-268 22q22 207 146.5 322.5t328.5 115.5q121 0 223.5 -44t168 -134 t65.5 -209q0 -101 -52.5 -180t-152.5 -119v-2q121 -26 192.5 -118t71.5 -220q0 -90 -34.5 -173t-97.5 -149t-161.5 -105.5t-218.5 -39.5q-103 0 -188.5 28t-143 74.5t-97.5 108t-58 126t-19 130.5z" />
<glyph unicode="4" d="M35 313v254q68 92 629 885h247v-897h187v-242h-187v-313h-272v313h-604zM281 555h358v500h-8q-277 -400 -350 -500z" />
<glyph unicode="5" d="M63 401l285 15q12 -94 74 -152.5t147 -58.5q102 0 166 77.5t64 204.5q0 123 -63.5 196t-170.5 73q-129 0 -217 -111l-239 17l137 778h772v-252h-561l-51 -287h10q99 76 229 76q85 0 161.5 -27.5t141.5 -83.5t103.5 -153t38.5 -224q0 -99 -33.5 -190t-96.5 -164.5 t-164 -117.5t-225 -44q-212 0 -353.5 114t-154.5 314z" />
<glyph unicode="6" d="M63 713q0 123 20 233t63.5 206t107 165t155.5 109t205 40q179 0 296.5 -100t144.5 -281l-275 -14q-12 78 -59 124t-117 46q-104 0 -174.5 -107t-77.5 -317l4 -2q108 141 291 141q78 0 152.5 -28t138.5 -82.5t103.5 -148.5t39.5 -214q0 -96 -30.5 -185t-88.5 -162.5 t-153.5 -118t-214.5 -44.5q-79 0 -146.5 18.5t-117 49t-90.5 75t-68 92t-47.5 105t-32 109t-18.5 108.5t-9 98.5t-2 84.5zM377 485q0 -118 62.5 -197t156.5 -79q92 0 146.5 71.5t54.5 190.5q0 123 -55 197.5t-152 74.5q-98 0 -155.5 -71t-57.5 -187z" />
<glyph unicode="7" d="M82 1174v266h971v-228q-131 -124 -242 -329.5t-168 -409.5q-69 -249 -72 -473h-290q12 278 114 557q125 347 346 617h-659z" />
<glyph unicode="8" d="M57 420q0 130 66.5 224.5t191.5 135.5v2q-104 37 -156.5 115.5t-52.5 183.5q0 81 28 147.5t74 110t107 73t124 42t128 12.5q95 0 173.5 -23t130.5 -61t87.5 -88t51.5 -102.5t16 -106.5q0 -108 -51.5 -187t-155.5 -116v-2q125 -40 191.5 -134t68.5 -220 q1 -91 -29.5 -171.5t-90 -144t-158.5 -100.5t-226 -37q-126 0 -226.5 36t-163 98.5t-95.5 142t-33 170.5zM342 440q0 -111 65.5 -178t163.5 -67q99 0 161.5 65t62.5 176q0 103 -64 166.5t-162 63.5q-60 0 -106 -21.5t-71 -56.5t-37.5 -72.5t-12.5 -75.5zM371 1059 q0 -86 55 -134t141 -48q87 0 141 48t54 134q0 77 -47.5 131.5t-145.5 54.5q-87 0 -142.5 -50t-55.5 -136z" />
<glyph unicode="9" d="M53 956q0 101 33 192t93 162.5t153.5 113.5t206.5 42q139 0 243 -55t165.5 -156t91.5 -233t30 -297q0 -125 -19.5 -235t-62.5 -205.5t-106 -164.5t-155.5 -108t-205.5 -39q-182 0 -297.5 98.5t-142.5 282.5l274 15q12 -78 59.5 -124t118.5 -46q223 0 250 424h-8 q-57 -73 -126.5 -106.5t-162.5 -33.5q-80 0 -150 25.5t-121 70t-87.5 104.5t-55 129.5t-18.5 143.5zM338 969q0 -125 55 -200t152 -75t154 71.5t57 188.5q0 119 -62 198t-157 79q-91 0 -145 -71.5t-54 -190.5z" />
<glyph unicode=":" horiz-adv-x="626" d="M164 0v297h301v-297h-301zM164 754v299h301v-299h-301z" />
<glyph unicode=";" horiz-adv-x="626" d="M147 -201q75 17 114.5 70t39.5 131h-143v297h303v-289q0 -56 -21 -117q-28 -83 -96.5 -141.5t-167.5 -83.5zM158 752v299h301v-299h-301z" />
<glyph unicode="&#x3c;" horiz-adv-x="1212" d="M94 502v241l1022 424v-260l-725 -284l725 -287v-260z" />
<glyph unicode="=" horiz-adv-x="1212" d="M92 281v239h1028v-239h-1028zM92 721v240h1028v-240h-1028z" />
<glyph unicode="&#x3e;" horiz-adv-x="1212" d="M94 76v258l727 289l-727 284v260l1024 -426v-239z" />
<glyph unicode="?" horiz-adv-x="1196" d="M86 1022q10 207 152.5 337t357.5 130q138 0 254.5 -46.5t190 -141.5t73.5 -220q0 -84 -30.5 -154t-78.5 -120t-126 -107q-49 -36 -92.5 -85.5t-51.5 -88.5q-10 -48 -10 -118h-266v79q0 114 53 205q38 67 139 148q3 3 26.5 21t30 23t26.5 23t27 27.5t21 27.5t19.5 32.5 t10.5 34.5t5 40q0 89 -56 141t-153 52q-105 0 -167 -68t-76 -188zM444 0v297h301v-297h-301z" />
<glyph unicode="@" horiz-adv-x="1818" d="M68 606q0 193 68.5 359.5t188 282t286.5 181.5t358 66q173 0 320 -54t248 -147.5t157.5 -222t56.5 -274.5q0 -259 -174 -459q-87 -99 -190 -149t-207 -50q-74 0 -116 30t-50 85h-2q-84 -114 -240 -117q-161 -3 -259.5 97t-98.5 288q0 221 125 393q146 201 366 201 q82 0 148.5 -34.5t103.5 -104.5l29 110h219l-160 -708q-4 -21 8 -36t31 -15q54 0 119 53q79 63 128.5 171t49.5 228q0 122 -40 219.5t-103 157.5t-147 99.5t-164 55t-162 15.5q-159 0 -292.5 -55.5t-224.5 -152.5t-141.5 -231t-50.5 -290q0 -155 57 -281t155.5 -208 t230 -126t282.5 -44q374 0 565 219h195q-58 -93 -136.5 -164.5t-156 -113t-165.5 -67.5t-159 -35t-141 -9q-193 0 -358.5 55t-290 159t-195.5 264t-71 359zM645 541q0 -104 44 -159.5t126 -55.5q41 0 93 24.5t77 55.5q49 60 81 150.5t32 168.5q0 92 -49 147.5t-123 55.5 q-84 0 -158 -68q-52 -49 -87.5 -141.5t-35.5 -177.5z" />
<glyph unicode="A" horiz-adv-x="1437" d="M-6 0l561 1464h322l567 -1464h-328l-119 330h-567l-119 -330h-317zM518 571h389l-192 541h-4z" />
<glyph unicode="B" horiz-adv-x="1452" d="M143 0v1464h645q105 0 191.5 -18t160.5 -58.5t116 -115.5t42 -178q0 -105 -53 -184t-149 -124q133 -38 203.5 -133t70.5 -229q0 -137 -70.5 -235t-182.5 -143.5t-251 -45.5h-723zM453 248h374q100 0 164 48.5t64 149.5q0 57 -21.5 97t-59 61t-79 30t-90.5 9l-352 2v-397z M453 877l366 2q75 5 127.5 48t52.5 122q0 87 -56.5 127.5t-174.5 40.5h-315v-340z" />
<glyph unicode="C" horiz-adv-x="1492" d="M82 723q0 131 30 248t89 212.5t142 164.5t195 107t242 38q238 0 405.5 -125t209.5 -352l-303 -35q-20 112 -107.5 181t-206.5 69q-187 0 -285 -133t-98 -365q0 -235 97.5 -368.5t281.5 -133.5q132 0 217 83.5t113 236.5l299 -45q-49 -253 -216.5 -394t-410.5 -141 q-211 0 -370 98t-241.5 268t-82.5 386z" />
<glyph unicode="D" horiz-adv-x="1497" d="M143 0v1464h625q162 0 286 -56t199.5 -156.5t113.5 -232t38 -290.5q0 -133 -23.5 -243t-74.5 -201t-128.5 -153.5t-189 -97t-252.5 -34.5h-594zM453 258h254q86 0 152.5 22t120.5 72t83 142.5t29 224.5q0 252 -96 368.5t-287 116.5h-256v-946z" />
<glyph unicode="E" horiz-adv-x="1378" d="M143 0v1464h1092v-258h-784v-319h725v-250h-725v-379h804v-258h-1112z" />
<glyph unicode="F" horiz-adv-x="1198" d="M143 0v1464h1014v-258h-706v-344h612v-248h-612v-614h-308z" />
<glyph unicode="G" horiz-adv-x="1568" d="M82 731q0 67 10.5 136t36 144.5t63.5 144t97 131t131.5 107.5t172 72t214.5 27q245 0 409 -126.5t209 -344.5l-301 -29q-29 114 -113 176t-206 62q-194 0 -302 -136t-108 -358q0 -233 104.5 -368.5t299.5 -135.5q143 0 244 66t108 180v66h-338v243h633v-313 q-11 -98 -61 -188t-132 -161t-203 -113t-264 -42q-154 0 -283 52t-222.5 148t-146 240t-52.5 320z" />
<glyph unicode="H" horiz-adv-x="1490" d="M143 0v1464h310v-569h585v569h310v-1464h-310v637h-585v-637h-310z" />
<glyph unicode="I" horiz-adv-x="595" d="M143 0v1464h310v-1464h-310z" />
<glyph unicode="J" d="M31 498l284 16q3 -283 187 -283q91 0 132.5 63.5t41.5 192.5v977h309v-964q0 -529 -487 -529q-224 0 -355 145q-114 128 -114 324q0 28 2 58z" />
<glyph unicode="K" horiz-adv-x="1474" d="M143 0v1464h308v-628l585 628h402l-564 -573l605 -891h-394l-421 674l-213 -217v-457h-308z" />
<glyph unicode="L" horiz-adv-x="1218" d="M143 0v1464h308v-1206h727v-258h-1035z" />
<glyph unicode="M" horiz-adv-x="1781" d="M143 0v1464h447l305 -1009h2l293 1009h448v-1464h-288v1094h-4l-322 -1094h-266l-324 1094h-4v-1094h-287z" />
<glyph unicode="N" horiz-adv-x="1486" d="M143 0v1464h306l600 -981h6v981h288v-1464h-309l-598 967h-4v-967h-289z" />
<glyph unicode="O" horiz-adv-x="1595" d="M82 725q0 126 28.5 239.5t87.5 210.5t143 167.5t201 110.5t255 40q168 0 304.5 -58.5t226 -162t137.5 -243t48 -302.5q0 -59 -8.5 -122t-31 -138.5t-57 -144t-91.5 -133.5t-129 -112.5t-174 -76.5t-223 -29q-154 0 -285.5 51.5t-227.5 146t-150 238t-54 318.5zM395 729 q0 -59 9 -119t36.5 -130.5t70 -124t117 -89t171.5 -35.5q191 0 295 137.5t104 362.5q0 229 -102.5 365.5t-296.5 136.5q-195 0 -299.5 -137.5t-104.5 -366.5z" />
<glyph unicode="P" horiz-adv-x="1363" d="M143 0v1464h670q211 -6 342 -126t131 -334q0 -89 -26 -164.5t-72.5 -130.5t-109 -93.5t-136.5 -57.5t-154 -19h-337v-539h-308zM451 788h262q266 0 266 213t-264 213h-264v-426z" />
<glyph unicode="Q" horiz-adv-x="1593" d="M82 729q0 223 85.5 395.5t249 270.5t382.5 98t381.5 -98t246.5 -270.5t84 -395.5q0 -162 -44.5 -293.5t-139.5 -249.5q106 -85 209 -145l-129 -182q-19 9 -38 20t-33 18.5t-35.5 23t-30.5 21.5t-34 25.5t-30 23.5t-34.5 27.5t-32.5 26.5q-145 -74 -336 -74 q-224 0 -389 99t-248.5 269.5t-83.5 389.5zM395 729q0 -227 104.5 -364.5t293.5 -137.5q84 0 125 21q-66 53 -160 108l116 166q106 -54 224 -151q100 130 100 358q0 229 -103 365.5t-296 136.5q-194 0 -299 -137t-105 -365z" />
<glyph unicode="R" horiz-adv-x="1443" d="M143 0v1464h688q106 0 197.5 -24t165 -72t116 -128t42.5 -183q0 -148 -79.5 -247t-234.5 -140q61 -30 109 -68q46 -39 79 -98.5t53.5 -124t40 -130t51.5 -133t75 -116.5h-359q-33 37 -57.5 89.5t-39 106l-29 107t-37 108t-52.5 93.5q-35 46 -88.5 67t-136.5 21h-194v-592 h-310zM453 823h196q156 0 219 8q170 22 170 191q0 91 -57 141.5t-164 50.5h-364v-391z" />
<glyph unicode="S" horiz-adv-x="1347" d="M61 481l299 15q9 -141 94 -208t228 -67q71 0 134 19t108 64t45 108t-44 103t-137 67q-8 2 -94.5 26t-130 37.5t-116.5 37.5t-121.5 48.5t-77.5 48.5q-68 57 -101.5 127t-33.5 164q0 126 71.5 223t193 148t273.5 51q260 0 416.5 -118t159.5 -339l-303 -8 q-13 117 -83.5 168t-195.5 51q-97 0 -166 -39.5t-69 -115.5q0 -43 22 -71t80 -50q27 -11 255.5 -77.5t305.5 -109.5q199 -110 199 -354q0 -152 -79 -257t-211 -153.5t-306 -48.5q-271 0 -437 130t-178 380z" />
<glyph unicode="T" horiz-adv-x="1263" d="M41 1206v258h1182v-258h-437v-1206h-307v1206h-438z" />
<glyph unicode="U" horiz-adv-x="1495" d="M143 618v846h308v-852q0 -53 3.5 -94t14 -87.5t31.5 -80t52.5 -62t81 -43t114.5 -14.5q77 0 132.5 22.5t86.5 56.5t49 87.5t23 101.5t5 113v852h308v-846q0 -205 -35 -317q-14 -44 -36.5 -84.5t-68 -87t-105.5 -80t-154 -56t-208 -22.5t-207.5 22.5t-153 56t-104 80 t-66.5 87t-36 84.5q-35 112 -35 317z" />
<glyph unicode="V" horiz-adv-x="1331" d="M-6 1464h325l279 -848l70 -229h6l67 229l273 848h323l-506 -1464h-339z" />
<glyph unicode="W" horiz-adv-x="1935" d="M6 1464h311l228 -1013h2l260 1013h328l254 -1028h2l231 1028h307l-375 -1464h-317l-219 848l-51 211h-4l-50 -211l-215 -848h-323z" />
<glyph unicode="X" horiz-adv-x="1368" d="M-4 0l508 766l-463 698h358l207 -338l82 -135h2l84 137l207 336h348l-463 -706l506 -758h-368l-256 412l-64 108h-2l-66 -108l-262 -412h-358z" />
<glyph unicode="Y" horiz-adv-x="1366" d="M-10 1464h354l272 -460l72 -121h2l70 121l266 460h350l-540 -876v-588h-308v594z" />
<glyph unicode="Z" horiz-adv-x="1288" d="M37 0v260l790 950l-198 -2h-518v256h1118v-241l-817 -967l190 2h645v-258h-1210z" />
<glyph unicode="[" horiz-adv-x="681" d="M143 -389v1880h519v-225h-240v-1430h240v-225h-519z" />
<glyph unicode="\" horiz-adv-x="663" d="M-12 1493h219l469 -1522h-221z" />
<glyph unicode="]" horiz-adv-x="681" d="M20 -162h240v1432h-240v223h519v-1880h-519v225z" />
<glyph unicode="^" horiz-adv-x="1212" d="M119 672l366 792h248l359 -792h-263l-165 389l-58 143l-57 -143l-166 -389h-264z" />
<glyph unicode="_" horiz-adv-x="1081" d="M-8 -188h1095v-144h-1095v144z" />
<glyph unicode="`" horiz-adv-x="606" d="M-27 1477h318l168 -295h-191z" />
<glyph unicode="a" horiz-adv-x="1157" d="M70 289q0 151 96 225.5t276 101.5q12 2 43 6.5t44 6.5t40 6.5t40 7t35 7t34.5 8.5t28 9t26 11t19.5 12v45q0 84 -46 115t-145 31q-85 0 -128 -38.5t-60 -107.5l-273 23q50 327 478 327q101 0 181.5 -16.5t142.5 -50.5t96 -93t34 -139v-440q0 -115 9.5 -196t41.5 -150 h-286q-21 59 -29 109q-133 -136 -342 -136q-161 0 -258.5 84.5t-97.5 231.5zM354 309q0 -67 47.5 -103t120.5 -36q45 0 89.5 16.5t72.5 40.5q39 33 53.5 81.5t14.5 123.5v82q-35 -22 -201 -53q-46 -9 -74.5 -18t-60 -25.5t-47 -43.5t-15.5 -65z" />
<glyph unicode="b" horiz-adv-x="1251" d="M123 0v1464h285v-530h2q59 75 142 113t179 38q139 0 241 -75.5t152 -198t50 -274.5q0 -75 -13 -148.5t-45 -150t-80.5 -134.5t-126.5 -94.5t-176 -36.5q-107 0 -195.5 43t-144.5 129h-2v-145h-268zM401 541q0 -70 14 -130t42 -109.5t77.5 -78t114.5 -28.5q110 0 173 90 t63 243q0 160 -63 250t-179 90q-113 0 -177.5 -89t-64.5 -238z" />
<glyph unicode="c" horiz-adv-x="1163" d="M76 522q0 258 139.5 410.5t384.5 152.5q197 0 327 -93t160 -275l-280 -25q-13 85 -65.5 129.5t-137.5 44.5q-119 0 -179 -89t-60 -240q0 -158 59.5 -249t177.5 -91q182 0 217 209l279 -23q-35 -200 -165 -305t-337 -105q-235 0 -377.5 151t-142.5 398z" />
<glyph unicode="d" horiz-adv-x="1255" d="M76 537q0 112 29.5 210.5t85.5 174t145 119.5t199 44q94 0 174.5 -38.5t136.5 -112.5h2v530h285v-1464h-269v145h-2q-57 -86 -141.5 -129t-183.5 -43q-90 0 -166 31t-130 84.5t-91.5 125.5t-55.5 153.5t-18 169.5zM365 543q0 -68 13 -127t40.5 -110t77 -81t116.5 -30 q117 0 179.5 90.5t62.5 242.5q0 160 -62 250t-182 90q-119 0 -182 -88t-63 -237z" />
<glyph unicode="e" horiz-adv-x="1177" d="M76 524q0 133 42 241t113.5 177t163.5 106t195 37q244 0 378 -157.5t134 -427.5q0 -7 -1 -22.5t-1 -22.5h-735q6 -130 70.5 -198.5t174.5 -68.5q76 0 131 39.5t74 104.5l268 -23q-115 -336 -479 -336q-236 0 -382 143t-146 408zM369 635h446q0 107 -60.5 171t-160.5 64 q-61 0 -107.5 -25t-70.5 -63.5t-35.5 -75.5t-11.5 -71z" />
<glyph unicode="f" horiz-adv-x="690" d="M20 852v209h164v110q0 78 26 137t72 93.5t102 52t124 21.5q18 1 36 1q83 0 175 -22l-19 -207q-63 13 -116 13q-60 0 -86.5 -31t-26.5 -101v-67h205v-209h-205v-852h-287v852h-164z" />
<glyph unicode="g" horiz-adv-x="1247" d="M80 549q0 149 50 268.5t154.5 193.5t247.5 74q209 0 320 -170h2v146h270v-973q0 -262 -124.5 -383t-399.5 -121q-87 0 -158.5 14t-120 36.5t-86 54.5t-58.5 63t-35 67t-18.5 62.5t-6.5 52.5l305 -18q4 -18 9 -32t18.5 -33t32.5 -31.5t52 -21.5t76 -9q128 0 182 62.5 t54 183.5v147h-2q-54 -83 -137.5 -125.5t-182.5 -42.5q-110 0 -196.5 44.5t-139.5 120.5t-80.5 170.5t-27.5 199.5zM371 559q0 -145 59 -233t170 -88q114 0 181 84.5t67 222.5q0 150 -62 236.5t-182 86.5q-111 0 -172 -83.5t-61 -225.5z" />
<glyph unicode="h" horiz-adv-x="1226" d="M123 0v1464h287v-544h4q62 82 143.5 123.5t171.5 41.5q210 0 301 -122q48 -66 61 -137t13 -189v-637h-287v647q0 217 -180 217q-114 0 -170.5 -70.5t-56.5 -234.5v-559h-287z" />
<glyph unicode="i" horiz-adv-x="532" d="M123 0v1061h287v-1061h-287zM123 1214v250h287v-250h-287z" />
<glyph unicode="j" horiz-adv-x="546" d="M-66 -385l25 242q35 -9 66 -9q24 0 43 5.5t31 13t20.5 23.5t12.5 27.5t6 35.5t2 36.5t-0.5 42t-0.5 42.5v987h285v-1133q0 -331 -346 -331q-52 0 -144 18zM139 1214v250h285v-250h-285z" />
<glyph unicode="k" horiz-adv-x="1142" d="M123 0v1464h285v-780l348 377h346l-383 -389l418 -672h-328l-279 475l-122 -123v-352h-285z" />
<glyph unicode="l" horiz-adv-x="532" d="M123 0v1464h287v-1464h-287z" />
<glyph unicode="m" horiz-adv-x="1835" d="M123 0v1061h266v-146h4q129 170 326 170q219 0 303 -172q132 172 321 172q185 0 277 -102.5t92 -288.5v-694h-287v602q0 42 -1 66.5t-5.5 59.5t-14.5 55.5t-27 41t-45 30t-66 9.5q-205 0 -205 -315v-549h-287v588q0 121 -9 160q-21 99 -115 113q-18 3 -38 3 q-42 0 -75.5 -13t-54.5 -31t-36 -50.5t-22 -58t-11 -68t-4.5 -65t-0.5 -64.5v-10v-504h-285z" />
<glyph unicode="n" horiz-adv-x="1226" d="M123 0v1061h268v-154h4q60 88 147.5 133t188.5 45q107 0 181.5 -30t115.5 -88.5t58.5 -133.5t17.5 -178v-655h-287v641q0 99 -43.5 161t-136.5 62q-83 0 -136.5 -40.5t-70.5 -96.5q-20 -64 -20 -209v-518h-287z" />
<glyph unicode="o" horiz-adv-x="1247" d="M76 537q0 245 154 396.5t393 151.5q154 0 277 -64t197 -191.5t74 -299.5q0 -88 -22.5 -170t-68.5 -152.5t-110 -123t-153.5 -82t-193.5 -29.5q-132 0 -237.5 43.5t-172.5 120.5t-102 179t-35 221zM365 528q0 -147 66.5 -239t191.5 -92t191.5 92.5t66.5 240.5 q0 147 -67 239.5t-191 92.5q-125 0 -191.5 -92.5t-66.5 -241.5z" />
<glyph unicode="p" horiz-adv-x="1255" d="M123 -387v1448h268v-148h4q52 83 136 127.5t186 44.5q114 0 204 -45.5t145.5 -123.5t84.5 -177.5t29 -212.5q0 -109 -30.5 -208t-87 -176t-144.5 -123t-195 -46q-186 0 -311 158h-4v-518h-285zM401 537q0 -157 65 -249.5t185 -92.5q118 0 179 89t61 246 q0 151 -63.5 243.5t-180.5 92.5q-119 0 -182.5 -90.5t-63.5 -238.5z" />
<glyph unicode="q" horiz-adv-x="1249" d="M76 532q0 150 51 273.5t158 201.5t254 78q212 0 319 -172h4v148h268v-1448h-286v518h-4q-51 -76 -137.5 -117t-184.5 -41q-85 0 -157.5 30t-124 83t-88.5 123.5t-54.5 152.5t-17.5 170zM365 528q0 -156 61 -244.5t178 -88.5q118 0 184 92.5t66 247.5q0 147 -63.5 239 t-178.5 92q-119 0 -183 -91t-64 -247z" />
<glyph unicode="r" horiz-adv-x="796" d="M123 0v1061h268v-174h6q50 92 124.5 144t160.5 52q70 0 125 -28l-43 -258q-58 28 -119 28q-58 0 -101.5 -21t-69 -54.5t-41 -83t-20.5 -97t-5 -106.5v-463h-285z" />
<glyph unicode="s" horiz-adv-x="1120" d="M53 324l279 20q10 -85 70.5 -128.5t154.5 -43.5t145.5 33.5t51.5 89.5q0 38 -31 64t-102 44q-115 28 -230 60q-55 16 -94 31t-81.5 39.5t-69 53t-43.5 71.5t-17 96q0 160 123.5 245.5t329.5 85.5q418 0 469 -309l-271 -24q-22 137 -198 137q-76 0 -127.5 -24.5 t-51.5 -71.5q0 -30 26.5 -54t76.5 -37q85 -22 207 -51q58 -14 97 -25.5t86 -29.5t77 -40.5t57 -53.5t40 -73.5t13 -94.5q0 -54 -15.5 -104.5t-51.5 -98t-90 -83t-138 -56.5t-188 -21q-137 0 -243 37t-176 117.5t-85 198.5z" />
<glyph unicode="t" horiz-adv-x="694" d="M20 850v211h154v258l287 108v-366h203v-211h-203v-545q0 -92 100 -92q39 0 101 16l12 -221q-35 -9 -98.5 -17.5t-102.5 -8.5q-133 0 -216 64.5t-83 184.5v619h-154z" />
<glyph unicode="u" horiz-adv-x="1226" d="M123 383v678h287v-635q0 -50 8 -89t27 -72.5t56 -51.5t89 -18q79 0 132 40.5t74 99t21 130.5v596h287v-1061h-270v154h-7q-56 -87 -144.5 -134t-188.5 -47q-193 0 -282 103t-89 307z" />
<glyph unicode="v" horiz-adv-x="1101" d="M10 1061h299l185 -543l57 -180h4l55 180l185 543h288l-389 -1061h-288z" />
<glyph unicode="w" horiz-adv-x="1630" d="M10 1061h291l195 -709h4l178 709h278l179 -707h4l196 707h287l-336 -1061h-285l-147 565l-37 146h-6l-35 -146l-143 -565h-287z" />
<glyph unicode="x" horiz-adv-x="1120" d="M6 0l383 551l-358 510h338l120 -184l66 -105l68 105l125 184h325l-354 -500l391 -561h-338l-145 219l-74 117l-74 -117l-145 -219h-328z" />
<glyph unicode="y" horiz-adv-x="1101" d="M0 1061h305l203 -604l45 -146h2l45 146l195 604h295l-443 -1200q-53 -145 -141.5 -203.5t-239.5 -58.5q-52 0 -166 16l-16 227q74 -12 154 -12q72 0 111.5 35t39.5 104q0 55 -29 137z" />
<glyph unicode="z" horiz-adv-x="1124" d="M82 0v219l565 619l-149 -4h-375v227h885v-211l-570 -621l148 4h456v-233h-960z" />
<glyph unicode="{" horiz-adv-x="739" d="M20 440v209q82 0 135.5 45.5t63.5 143.5q4 54 7.5 212t6.5 197q7 101 73 162t155 76q47 8 182 8h70v-233q-76 0 -127 -7q-49 -7 -67.5 -41.5t-18.5 -95.5q0 -200 -11 -328q-5 -58 -22 -100t-46 -68t-53 -39.5t-63 -29.5v-6q35 -13 62 -29.5t56 -44t47 -70t22 -96.5 q16 -181 16 -336q0 -64 15 -95t63 -38q44 -6 127 -6v-233h-70q-135 0 -182 8q-89 15 -155 75.5t-73 161.5q-3 37 -8.5 213t-9.5 224q-7 91 -57.5 125t-137.5 36z" />
<glyph unicode="|" horiz-adv-x="516" d="M147 -233v1726h222v-1726h-222z" />
<glyph unicode="}" horiz-adv-x="739" d="M20 -170q83 0 127 6q48 7 63 38t15 95q0 143 17 336q4 54 22 96.5t46.5 70t55.5 44t62 29.5v6q-39 16 -63 29.5t-53 39.5t-46 68t-22 100q-11 128 -11 328q0 61 -18.5 95.5t-67.5 41.5q-51 7 -127 7v233h70q135 0 182 -8q89 -15 155 -76t73 -162q3 -39 6.5 -197t7.5 -212 q10 -98 63.5 -143.5t135.5 -45.5v-209q-87 -2 -137.5 -36t-57.5 -125q-4 -48 -9.5 -224t-8.5 -213q-7 -101 -73 -161.5t-155 -75.5q-47 -8 -182 -8h-70v233z" />
<glyph unicode="~" horiz-adv-x="1212" d="M102 655q112 156 275 156q55 0 120.5 -21.5t116 -47t113.5 -47t115 -21.5q66 0 116 35.5t111 109.5l41 -248q-123 -153 -279 -153q-62 0 -130.5 21.5t-117.5 47t-109 47t-109 21.5q-67 0 -120 -37.5t-102 -105.5z" />
<glyph unicode="&#xa1;" horiz-adv-x="632" d="M164 -23l78 687h151l76 -687v-368h-305v368zM166 776v299h301v-299h-301z" />
<glyph unicode="&#xa2;" d="M74 522q0 257 140.5 410t385.5 153h23l45 273l123 -17l-46 -270q139 -29 227.5 -117.5t112.5 -236.5l-280 -25q-18 108 -98 152l-107 -647q182 0 217 209l279 -23q-35 -200 -164 -305t-336 -105h-33l-49 -292l-121 18l49 295q-170 43 -269 184t-99 344zM362 537 q0 -110 30 -190.5t89 -117.5l105 637q-110 -6 -167 -95t-57 -234z" />
<glyph unicode="&#xa3;" d="M27 627v196h145q-68 128 -68 269q0 80 36 152.5t100 127.5t158 88t202 33q216 0 340.5 -116t136.5 -333l-274 -18q-6 48 -17 85t-33 73.5t-62 57t-95 20.5q-85 0 -140 -53t-55 -136q0 -110 68 -250h293v-196h-242q6 -21 7.5 -64t-1.5 -59q-12 -88 -54 -149t-105 -113 l4 -6q63 36 139 36q58 0 156.5 -25.5t158.5 -25.5q59 0 102 15.5t91 56.5l117 -221q-64 -49 -143.5 -75t-155.5 -26q-84 0 -229 40t-216 40q-126 0 -241 -80l-117 215q97 65 157 145t60 165q0 91 -17 131h-206z" />
<glyph unicode="&#xa4;" horiz-adv-x="1134" d="M43 1100l141 147l125 -125q113 76 260 76q140 0 250 -76l125 125l148 -145l-125 -123q75 -104 75 -256q0 -148 -75 -258l123 -125l-140 -141l-127 127q-107 -80 -256 -80q-152 0 -258 80l-123 -125l-141 141l123 125q-78 107 -78 254q0 156 76 254zM338 721 q0 -101 64.5 -172.5t164.5 -71.5q102 0 165 72t63 174q0 99 -62.5 171.5t-163.5 72.5q-104 0 -167.5 -72t-63.5 -174z" />
<glyph unicode="&#xa5;" horiz-adv-x="1163" d="M0 1464h319l197 -440l64 -164h2l65 164l197 440h319l-317 -635h231v-206h-336l-14 -60v-78h350v-209h-350v-276h-297v276h-346v209h346v78l-14 60h-332v206h227z" />
<glyph unicode="&#xa6;" horiz-adv-x="516" d="M147 -233v677h222v-677h-222zM147 817v676h222v-676h-222z" />
<glyph unicode="&#xa7;" d="M39 631q0 104 52.5 183.5t150.5 125.5q-95 106 -95 215q0 152 118.5 245t295.5 93q190 0 308.5 -98.5t127.5 -268.5l-264 -20q-2 77 -45.5 124.5t-118.5 47.5q-61 0 -102 -30.5t-41 -82.5q0 -41 39 -86q16 -18 92.5 -65.5t187 -112.5t158.5 -96q189 -120 189 -307 q0 -96 -51.5 -176.5t-145.5 -131.5q117 -97 117 -245q0 -158 -123 -252t-309 -94q-203 0 -328 98.5t-135 282.5l264 20q24 -184 199 -184q65 0 106 34.5t41 92.5q0 47 -33 80q-38 38 -223 149t-252 158q-91 67 -135.5 135t-44.5 166zM297 649q0 -27 18 -54.5t50 -47.5 l383 -234q40 20 67 60.5t27 75.5q0 81 -119 153l-334 205q-42 -13 -67.5 -52.5t-24.5 -105.5z" />
<glyph unicode="&#xa8;" horiz-adv-x="604" d="M-41 1188v239h258v-239h-258zM385 1188v239h260v-239h-260z" />
<glyph unicode="&#xa9;" horiz-adv-x="1572" d="M14 729q0 208 103.5 384.5t280.5 279t386 102.5q156 0 299 -60.5t246.5 -163t165 -244.5t61.5 -298t-61.5 -297.5t-165 -244t-246.5 -162.5t-299 -60q-209 0 -386 102t-280.5 278t-103.5 384zM174 729q0 -165 82.5 -305t222.5 -220.5t305 -80.5t306.5 81t224 220.5 t82.5 304.5t-82.5 304.5t-224 220.5t-306.5 81t-305 -80.5t-222.5 -220.5t-82.5 -305zM393 733q0 195 112 318t294 123q140 0 233.5 -71.5t126.5 -209.5l-162 -19q-22 71 -72.5 108.5t-121.5 37.5q-104 0 -163.5 -76t-59.5 -211q0 -131 61.5 -210t157.5 -79q77 0 129 42 t69 124l164 -28q-30 -136 -126 -213.5t-228 -77.5q-190 0 -302 124t-112 318z" />
<glyph unicode="&#xaa;" horiz-adv-x="731" d="M29 965q0 132 139 174l197 61q27 8 41 13.5t30.5 14.5t23.5 20t7 26q0 57 -107 57q-53 0 -76 -22t-32 -64l-199 19q18 104 100.5 158.5t211.5 54.5q138 0 213 -37q94 -46 94 -164v-356q0 -39 1 -56.5t8 -45t21 -44.5h-192q-20 23 -27 66q-84 -84 -219 -84q-107 0 -171 55 t-64 154zM229 981q0 -37 26 -57.5t69 -20.5q75 0 113 43.5t38 114.5v47q-14 -10 -65 -29q-35 -14 -131 -39q-50 -14 -50 -59z" />
<glyph unicode="&#xab;" horiz-adv-x="1024" d="M90 475v139l320 359l110 -123l-223 -305l223 -305l-110 -123zM494 475v139l319 359l111 -123l-224 -305l224 -305l-111 -123z" />
<glyph unicode="&#xac;" horiz-adv-x="1212" d="M92 715v237h1028v-661h-237v424h-791z" />
<glyph unicode="&#xad;" horiz-adv-x="747" d="M82 412v266h584v-266h-584z" />
<glyph unicode="&#xae;" horiz-adv-x="1572" d="M14 729q0 208 103.5 384.5t280.5 279t386 102.5q156 0 299 -60.5t246.5 -163t165 -244.5t61.5 -298t-61.5 -297.5t-165 -244t-246.5 -162.5t-299 -60q-209 0 -386 102t-280.5 278t-103.5 384zM174 729q0 -165 82.5 -305t222.5 -220.5t305 -80.5t306.5 81t224 220.5 t82.5 304.5t-82.5 304.5t-224 220.5t-306.5 81t-305 -80.5t-222.5 -220.5t-82.5 -305zM463 311v836h375q121 0 201.5 -65t80.5 -173q0 -101 -59.5 -160.5t-161.5 -70.5q68 -22 105 -98q4 -9 26 -56t37.5 -78.5t41 -72t48.5 -62.5h-192q-48 45 -74 129q-12 39 -28 74 t-38 70.5t-52.5 56.5t-63.5 21h-80v-351h-166zM629 793h188q58 0 95.5 28t37.5 84q0 45 -35.5 78t-95.5 33h-190v-223z" />
<glyph unicode="&#xaf;" horiz-adv-x="1169" d="M260 1217v178h649v-178h-649z" />
<glyph unicode="&#xb0;" horiz-adv-x="819" d="M98 1165q0 129 91.5 219.5t220.5 90.5t220 -90.5t91 -219.5t-91 -219t-220 -90t-220.5 90t-91.5 219zM248 1165q0 -69 45 -117.5t117 -48.5q70 0 114.5 48.5t44.5 117.5q0 70 -44 118t-115 48q-72 0 -117 -48.5t-45 -117.5z" />
<glyph unicode="&#xb1;" horiz-adv-x="1175" d="M74 0v238h1030v-238h-1030zM74 643v242h395v323h238v-323h397v-242h-397v-324h-238v324h-395z" />
<glyph unicode="&#xb2;" horiz-adv-x="763" d="M51 643q6 105 55 178q50 75 213 191q17 13 52.5 36.5t52.5 36.5t38.5 34.5t30.5 44t9 50.5q0 46 -30.5 75.5t-82.5 29.5q-65 0 -96 -46t-31 -108l-201 9q9 145 95.5 222t240.5 77q129 0 216 -68t87 -178q0 -46 -14 -86.5t-32.5 -68.5t-56 -60.5t-64.5 -51t-78 -51.5 q-89 -59 -129 -106h370v-160h-645z" />
<glyph unicode="&#xb3;" horiz-adv-x="790" d="M61 907l191 11q3 -138 135 -138q60 0 94.5 32.5t34.5 86.5q0 55 -35 82t-96 27q-11 0 -72 -9l11 146q161 0 161 90q0 37 -29.5 60.5t-70.5 23.5q-113 0 -119 -123l-186 14q13 130 93 196.5t214 66.5q124 0 210.5 -63.5t86.5 -164.5q0 -116 -117 -160v-2q72 -20 112 -70 t40 -116q0 -124 -98.5 -197t-231.5 -73q-148 0 -236 74.5t-92 205.5z" />
<glyph unicode="&#xb4;" horiz-adv-x="606" d="M147 1182l168 295h318l-295 -295h-191z" />
<glyph unicode="&#xb6;" horiz-adv-x="1204" d="M0 1071q0 80 24 148.5t72.5 124.5t131.5 88t192 32h409l287 -90l-61 -194v-1567h-224v1638h-184v-1638h-225v1073q-198 0 -310 106t-112 279z" />
<glyph unicode="&#xb7;" horiz-adv-x="569" d="M135 469v297h301v-297h-301z" />
<glyph unicode="&#xb8;" horiz-adv-x="606" d="M31 -401l22 108q73 -24 180 -24q120 0 123 81q1 32 -23 51t-57 21l-153 8l80 156h131l-43 -66q75 4 115 -6q66 -15 105 -58t38 -106q-1 -51 -27 -90t-70 -61.5t-97.5 -33.5t-114.5 -11q-124 0 -209 31z" />
<glyph unicode="&#xb9;" horiz-adv-x="741" d="M123 1130v168q74 5 159.5 55.5t96.5 110.5h164v-821h-201v543q-103 -47 -219 -56z" />
<glyph unicode="&#xba;" horiz-adv-x="749" d="M27 1114q0 169 93.5 266t252.5 97q161 0 255.5 -97t94.5 -266q0 -168 -94.5 -264t-255.5 -96q-159 0 -252.5 96t-93.5 264zM240 1112q0 -90 35 -143.5t98 -53.5q62 0 97.5 54t35.5 143q0 93 -35 147t-98 54q-64 0 -98.5 -53.5t-34.5 -147.5z" />
<glyph unicode="&#xbb;" horiz-adv-x="1024" d="M92 240l223 305l-223 305l111 123l319 -359v-139l-319 -358zM496 240l223 305l-223 305l110 123l320 -359v-139l-320 -358z" />
<glyph unicode="&#xbc;" horiz-adv-x="1767" d="M70 1130v177q47 3 102.5 23.5t100.5 57t53 76.5h163v-821h-200v543q-103 -47 -219 -56zM326 -49l858 1530h166l-856 -1530h-168zM1030 164v166l383 477h180v-490h113v-153h-113v-164h-186v164h-377zM1196 317h211v261h-2z" />
<glyph unicode="&#xbd;" horiz-adv-x="1763" d="M70 1130v177q47 3 102.5 23.5t100.5 57t53 76.5h163v-821h-200v543q-103 -47 -219 -56zM326 -49l858 1530h166l-856 -1530h-168zM1044 0q6 104 56 178q50 75 213 191q17 12 52.5 36t52 37t38 34.5t30.5 44t9 50.5q0 46 -30.5 75.5t-82.5 29.5q-65 0 -96 -46t-31 -108 l-200 8q9 145 95.5 222t240.5 77q129 0 216 -67.5t87 -177.5q0 -46 -14 -86.5t-32.5 -68t-57 -60.5t-64.5 -51.5t-78 -51.5q-89 -59 -129 -106h371v-160h-646z" />
<glyph unicode="&#xbe;" horiz-adv-x="1763" d="M59 907l191 11q3 -138 135 -138q60 0 94.5 32.5t34.5 86.5q0 55 -35 82t-96 27q-11 0 -72 -9l11 146q161 0 161 90q0 37 -29.5 60.5t-70.5 23.5q-113 0 -119 -123l-186 14q13 130 93 196.5t214 66.5q124 0 210.5 -63.5t86.5 -164.5q0 -116 -117 -160v-2q72 -20 112 -70 t40 -116q0 -124 -98.5 -197t-231.5 -73q-148 0 -236 74.5t-92 205.5zM426 -49l858 1530h166l-856 -1530h-168zM1051 164v166q18 22 162.5 202.5t220.5 274.5h180v-490h112v-153h-112v-164h-187v164h-376zM1217 317h210v261h-2z" />
<glyph unicode="&#xbf;" horiz-adv-x="1196" d="M84 -8q0 115 53 201q21 37 74 84.5t102.5 85.5t94 88.5t55.5 95.5q10 48 10 119h266v-80q0 -114 -53 -205q-19 -33 -58.5 -69.5t-80 -68.5t-79 -67.5t-63 -79.5t-24.5 -92q0 -89 56 -140.5t153 -51.5q105 0 167.5 68t76.5 188l278 -17q-10 -207 -152.5 -337t-357.5 -130 q-138 0 -254.5 46.5t-190 141.5t-73.5 220zM453 776v297h301v-297h-301z" />
<glyph unicode="&#xc0;" horiz-adv-x="1441" d="M-6 0l561 1464h322l567 -1464h-328l-119 330h-567l-119 -330h-317zM340 1886h317l168 -295h-190zM518 571h389l-192 541h-4z" />
<glyph unicode="&#xc1;" horiz-adv-x="1441" d="M-6 0l561 1464h322l567 -1464h-328l-119 330h-567l-119 -330h-317zM518 571h389l-192 541h-4zM600 1591l168 295h317l-294 -295h-191z" />
<glyph unicode="&#xc2;" horiz-adv-x="1441" d="M-6 0l561 1464h322l567 -1464h-328l-119 330h-567l-119 -330h-317zM365 1591l221 293h256l221 -293h-223l-129 156l-127 -156h-219zM518 571h389l-192 541h-4z" />
<glyph unicode="&#xc3;" horiz-adv-x="1441" d="M-6 0l561 1464h322l567 -1464h-328l-119 330h-567l-119 -330h-317zM350 1591q9 121 65 185.5t154 64.5q55 0 106.5 -19.5t96 -39t80.5 -19.5q75 0 88 80h131q-10 -108 -59 -174.5t-144 -66.5q-65 0 -124.5 19t-107 37.5t-83.5 18.5q-70 0 -76 -86h-127zM518 571h389 l-192 541h-4z" />
<glyph unicode="&#xc4;" horiz-adv-x="1441" d="M-6 0l561 1464h322l567 -1464h-328l-119 330h-567l-119 -330h-317zM369 1599v240h258v-240h-258zM518 571h389l-192 541h-4zM795 1599v240h260v-240h-260z" />
<glyph unicode="&#xc5;" horiz-adv-x="1441" d="M-6 0l561 1464h322l567 -1464h-328l-119 330h-567l-119 -330h-317zM481 1739q0 95 68 161t162 66t161.5 -66t67.5 -161q0 -93 -67.5 -159.5t-161.5 -66.5t-162 66.5t-68 159.5zM518 571h389l-192 541h-4zM612 1739q0 -43 28.5 -74t70.5 -31t70 31t28 74q0 45 -28 75.5 t-70 30.5t-70.5 -30.5t-28.5 -75.5z" />
<glyph unicode="&#xc6;" horiz-adv-x="2029" d="M-55 0l692 1464h1282v-258h-702v-319h653v-250h-653v-379h725v-258h-1031v336h-483l-147 -336h-336zM537 584h376v635h-92z" />
<glyph unicode="&#xc7;" horiz-adv-x="1497" d="M86 723q0 166 48 307t136.5 244t221.5 161t296 58q238 0 403.5 -124.5t207.5 -352.5l-303 -35q-20 112 -107.5 181t-206.5 69q-187 0 -285 -133t-98 -365q0 -235 97.5 -368.5t281.5 -133.5q132 0 217 83.5t113 236.5l299 -45q-46 -256 -210 -395.5t-417 -139.5 q-46 0 -69 2l-27 -41q65 6 115 -6q66 -15 105 -58t38 -106q-1 -51 -27 -90t-70 -61.5t-97.5 -33.5t-114.5 -11q-124 0 -209 31l22 108q74 -24 181 -24q120 0 123 81q1 33 -20 52.5t-60 21.5l-154 8l76 148q-243 65 -374.5 260.5t-131.5 470.5z" />
<glyph unicode="&#xc8;" horiz-adv-x="1347" d="M145 0v1464h1092v-258h-784v-319h725v-250h-725v-379h804v-258h-1112zM377 1886h317l168 -295h-190z" />
<glyph unicode="&#xc9;" horiz-adv-x="1347" d="M145 0v1464h1092v-258h-784v-319h725v-250h-725v-379h804v-258h-1112zM565 1591l168 295h318l-295 -295h-191z" />
<glyph unicode="&#xca;" horiz-adv-x="1347" d="M145 0v1464h1092v-258h-784v-319h725v-250h-725v-379h804v-258h-1112zM344 1591l221 293h256l221 -293h-223l-129 156l-127 -156h-219z" />
<glyph unicode="&#xcb;" horiz-adv-x="1347" d="M145 0v1464h1092v-258h-784v-319h725v-250h-725v-379h804v-258h-1112zM342 1599v240h258v-240h-258zM768 1599v240h260v-240h-260z" />
<glyph unicode="&#xcc;" horiz-adv-x="585" d="M-74 1886h318l168 -295h-191zM139 0v1464h310v-1464h-310z" />
<glyph unicode="&#xcd;" horiz-adv-x="585" d="M139 0v1464h310v-1464h-310zM178 1591l168 295h318l-295 -295h-191z" />
<glyph unicode="&#xce;" horiz-adv-x="585" d="M-55 1591l221 293h256l221 -293h-223l-129 156l-127 -156h-219zM139 0v1464h310v-1464h-310z" />
<glyph unicode="&#xcf;" horiz-adv-x="585" d="M-49 1599v240h258v-240h-258zM139 0v1464h310v-1464h-310zM377 1599v240h260v-240h-260z" />
<glyph unicode="&#xd0;" horiz-adv-x="1497" d="M45 637v213h143v614h580q162 0 286 -56t199.5 -156.5t113.5 -232t38 -290.5q0 -133 -23.5 -243t-74.5 -201t-128.5 -153.5t-189 -97t-252.5 -34.5h-549v637h-143zM496 258h211q86 0 152.5 22t120.5 72t83 142.5t29 224.5q0 252 -96 368.5t-287 116.5h-213v-354h321v-213 h-321v-379z" />
<glyph unicode="&#xd1;" horiz-adv-x="1497" d="M145 0v1464h306l600 -981h6v981h289v-1464h-310l-598 967h-4v-967h-289zM391 1591q9 121 65 185.5t154 64.5q55 0 106.5 -19.5t96 -39t80.5 -19.5q75 0 88 80h131q-10 -108 -59 -174.5t-144 -66.5q-65 0 -124.5 19t-107 37.5t-83.5 18.5q-70 0 -76 -86h-127z" />
<glyph unicode="&#xd2;" horiz-adv-x="1593" d="M82 725q0 126 28.5 239.5t87.5 210.5t143 167.5t201 110.5t255 40q168 0 304.5 -58.5t226 -162t137.5 -243t48 -302.5q0 -59 -8.5 -122t-31 -138.5t-57 -144t-91.5 -133.5t-129 -112.5t-174 -76.5t-223 -29q-154 0 -285.5 51.5t-227.5 146t-150 238t-54 318.5zM395 729 q0 -59 9 -119t36.5 -130.5t70 -124t117 -89t171.5 -35.5q191 0 295 137.5t104 362.5q0 229 -102.5 365.5t-296.5 136.5q-195 0 -299.5 -137.5t-104.5 -366.5zM416 1886h317l168 -295h-190z" />
<glyph unicode="&#xd3;" horiz-adv-x="1593" d="M82 725q0 126 28.5 239.5t87.5 210.5t143 167.5t201 110.5t255 40q168 0 304.5 -58.5t226 -162t137.5 -243t48 -302.5q0 -59 -8.5 -122t-31 -138.5t-57 -144t-91.5 -133.5t-129 -112.5t-174 -76.5t-223 -29q-154 0 -285.5 51.5t-227.5 146t-150 238t-54 318.5zM395 729 q0 -59 9 -119t36.5 -130.5t70 -124t117 -89t171.5 -35.5q191 0 295 137.5t104 362.5q0 229 -102.5 365.5t-296.5 136.5q-195 0 -299.5 -137.5t-104.5 -366.5zM694 1591l168 295h318l-295 -295h-191z" />
<glyph unicode="&#xd4;" horiz-adv-x="1593" d="M82 725q0 126 28.5 239.5t87.5 210.5t143 167.5t201 110.5t255 40q168 0 304.5 -58.5t226 -162t137.5 -243t48 -302.5q0 -59 -8.5 -122t-31 -138.5t-57 -144t-91.5 -133.5t-129 -112.5t-174 -76.5t-223 -29q-154 0 -285.5 51.5t-227.5 146t-150 238t-54 318.5zM395 729 q0 -59 9 -119t36.5 -130.5t70 -124t117 -89t171.5 -35.5q191 0 295 137.5t104 362.5q0 229 -102.5 365.5t-296.5 136.5q-195 0 -299.5 -137.5t-104.5 -366.5zM446 1591l222 293h256l221 -293h-223l-129 156l-127 -156h-220z" />
<glyph unicode="&#xd5;" horiz-adv-x="1593" d="M82 725q0 126 28.5 239.5t87.5 210.5t143 167.5t201 110.5t255 40q168 0 304.5 -58.5t226 -162t137.5 -243t48 -302.5q0 -59 -8.5 -122t-31 -138.5t-57 -144t-91.5 -133.5t-129 -112.5t-174 -76.5t-223 -29q-154 0 -285.5 51.5t-227.5 146t-150 238t-54 318.5zM395 729 q0 -59 9 -119t36.5 -130.5t70 -124t117 -89t171.5 -35.5q191 0 295 137.5t104 362.5q0 229 -102.5 365.5t-296.5 136.5q-195 0 -299.5 -137.5t-104.5 -366.5zM432 1591q9 121 65 185.5t154 64.5q55 0 106.5 -19.5t96 -39t80.5 -19.5q75 0 88 80h131q-10 -108 -59 -174.5 t-144 -66.5q-65 0 -124.5 19t-107 37.5t-83.5 18.5q-70 0 -76 -86h-127z" />
<glyph unicode="&#xd6;" horiz-adv-x="1593" d="M82 725q0 126 28.5 239.5t87.5 210.5t143 167.5t201 110.5t255 40q168 0 304.5 -58.5t226 -162t137.5 -243t48 -302.5q0 -59 -8.5 -122t-31 -138.5t-57 -144t-91.5 -133.5t-129 -112.5t-174 -76.5t-223 -29q-154 0 -285.5 51.5t-227.5 146t-150 238t-54 318.5zM395 729 q0 -59 9 -119t36.5 -130.5t70 -124t117 -89t171.5 -35.5q191 0 295 137.5t104 362.5q0 229 -102.5 365.5t-296.5 136.5q-195 0 -299.5 -137.5t-104.5 -366.5zM451 1599v240h258v-240h-258zM877 1599v240h260v-240h-260z" />
<glyph unicode="&#xd7;" horiz-adv-x="1212" d="M121 305l315 316l-315 315l172 170l313 -315l316 315l168 -168l-314 -315l316 -316l-170 -172l-318 318l-313 -316z" />
<glyph unicode="&#xd8;" horiz-adv-x="1595" d="M68 31l174 192q-158 202 -158 510q0 164 49 303.5t139 241t225.5 158.5t301.5 57q272 0 450 -143l162 178l121 -107l-170 -188q73 -95 112 -226.5t39 -281.5q0 -219 -83.5 -388.5t-246 -267.5t-380.5 -98q-273 0 -449 140l-166 -185zM397 729q0 -155 52 -274l612 682 q-104 96 -262 96q-194 0 -298 -137t-104 -367zM543 319q105 -94 256 -94q192 0 296.5 138t104.5 364q0 161 -47 272z" />
<glyph unicode="&#xd9;" horiz-adv-x="1497" d="M141 618v846h308v-852q0 -65 5 -113t23 -101.5t49 -87.5t86.5 -56.5t132.5 -22.5q65 0 114.5 14.5t81 43t52.5 62t31.5 80t14 87.5t3.5 94v852h308v-846q0 -205 -35 -317q-14 -44 -36.5 -84.5t-68 -87t-105.5 -80t-154 -56t-208 -22.5t-207.5 22.5t-153 56t-104 80 t-66.5 87t-36 84.5q-35 112 -35 317zM389 1886h318l167 -295h-190z" />
<glyph unicode="&#xda;" horiz-adv-x="1497" d="M141 618v846h308v-852q0 -65 5 -113t23 -101.5t49 -87.5t86.5 -56.5t132.5 -22.5q65 0 114.5 14.5t81 43t52.5 62t31.5 80t14 87.5t3.5 94v852h308v-846q0 -205 -35 -317q-14 -44 -36.5 -84.5t-68 -87t-105.5 -80t-154 -56t-208 -22.5t-207.5 22.5t-153 56t-104 80 t-66.5 87t-36 84.5q-35 112 -35 317zM633 1591l168 295h317l-295 -295h-190z" />
<glyph unicode="&#xdb;" horiz-adv-x="1497" d="M141 618v846h308v-852q0 -65 5 -113t23 -101.5t49 -87.5t86.5 -56.5t132.5 -22.5q65 0 114.5 14.5t81 43t52.5 62t31.5 80t14 87.5t3.5 94v852h308v-846q0 -205 -35 -317q-14 -44 -36.5 -84.5t-68 -87t-105.5 -80t-154 -56t-208 -22.5t-207.5 22.5t-153 56t-104 80 t-66.5 87t-36 84.5q-35 112 -35 317zM401 1591l222 293h256l221 -293h-223l-129 156l-127 -156h-220z" />
<glyph unicode="&#xdc;" horiz-adv-x="1497" d="M141 618v846h308v-852q0 -65 5 -113t23 -101.5t49 -87.5t86.5 -56.5t132.5 -22.5q65 0 114.5 14.5t81 43t52.5 62t31.5 80t14 87.5t3.5 94v852h308v-846q0 -205 -35 -317q-14 -44 -36.5 -84.5t-68 -87t-105.5 -80t-154 -56t-208 -22.5t-207.5 22.5t-153 56t-104 80 t-66.5 87t-36 84.5q-35 112 -35 317zM403 1599v240h259v-240h-259zM829 1599v240h261v-240h-261z" />
<glyph unicode="&#xdd;" horiz-adv-x="1366" d="M-10 1464h354l272 -460l72 -121h2l70 121l266 460h350l-540 -876v-588h-308v594zM580 1591l168 295h317l-295 -295h-190z" />
<glyph unicode="&#xde;" horiz-adv-x="1380" d="M145 0v1464h308v-237h184q107 0 192.5 -9.5t175 -39t149.5 -78.5t98 -134t38 -200q0 -83 -20 -150.5t-53.5 -115.5t-83.5 -83.5t-104.5 -57.5t-123 -35t-132.5 -18t-138 -5h-182v-301h-308zM453 549h143q152 0 206 9q140 24 170 133q9 33 9 75q0 39 -7.5 70.5t-22 53.5 t-35 38.5t-45.5 25.5t-53.5 15t-59 7.5t-63 2.5t-64.5 0h-33h-145v-430z" />
<glyph unicode="&#xdf;" horiz-adv-x="1251" d="M127 0v989q0 90 12.5 163t45 138t83.5 108.5t131.5 69t186.5 25.5q89 0 165 -20t136 -60.5t94.5 -107.5t34.5 -154q0 -58 -16 -106t-48 -86t-60.5 -62t-70.5 -53v-8q49 -69 209 -191q160 -121 160 -305q0 -88 -35.5 -160.5t-92 -117t-123 -68t-132.5 -23.5 q-84 0 -167 27.5t-120 87.5l133 168q43 -37 103 -37q52 0 90.5 38t38.5 97q0 38 -21 75.5t-53.5 68t-73 66t-77.5 68t-69.5 76t-47.5 87.5v73l135 142q61 61 61 120q0 72 -46.5 104t-108.5 32q-53 0 -94 -26t-58 -69q-20 -50 -20 -231v-938h-285z" />
<glyph unicode="&#xe0;" horiz-adv-x="1157" d="M70 289q0 151 96 225.5t276 101.5q12 2 43 6.5t44 6.5t40 6.5t40 7t35 7t34.5 8.5t28 9t26 11t19.5 12v45q0 84 -46 115t-145 31q-85 0 -128 -38.5t-60 -107.5l-273 23q50 327 478 327q101 0 181.5 -16.5t142.5 -50.5t96 -93t34 -139v-440q0 -115 9.5 -196t41.5 -150 h-286q-21 59 -29 109q-133 -136 -342 -136q-161 0 -258.5 84.5t-97.5 231.5zM266 1477h318l168 -295h-191zM354 309q0 -67 47.5 -103t120.5 -36q45 0 89.5 16.5t72.5 40.5q39 33 53.5 81.5t14.5 123.5v82q-35 -22 -201 -53q-46 -9 -74.5 -18t-60 -25.5t-47 -43.5t-15.5 -65z " />
<glyph unicode="&#xe1;" horiz-adv-x="1157" d="M70 289q0 151 96 225.5t276 101.5q12 2 43 6.5t44 6.5t40 6.5t40 7t35 7t34.5 8.5t28 9t26 11t19.5 12v45q0 84 -46 115t-145 31q-85 0 -128 -38.5t-60 -107.5l-273 23q50 327 478 327q101 0 181.5 -16.5t142.5 -50.5t96 -93t34 -139v-440q0 -115 9.5 -196t41.5 -150 h-286q-21 59 -29 109q-133 -136 -342 -136q-161 0 -258.5 84.5t-97.5 231.5zM354 309q0 -67 47.5 -103t120.5 -36q45 0 89.5 16.5t72.5 40.5q39 33 53.5 81.5t14.5 123.5v82q-35 -22 -201 -53q-46 -9 -74.5 -18t-60 -25.5t-47 -43.5t-15.5 -65zM428 1182l168 295h317 l-295 -295h-190z" />
<glyph unicode="&#xe2;" horiz-adv-x="1157" d="M70 289q0 151 96 225.5t276 101.5q12 2 43 6.5t44 6.5t40 6.5t40 7t35 7t34.5 8.5t28 9t26 11t19.5 12v45q0 84 -46 115t-145 31q-85 0 -128 -38.5t-60 -107.5l-273 23q50 327 478 327q101 0 181.5 -16.5t142.5 -50.5t96 -93t34 -139v-440q0 -115 9.5 -196t41.5 -150 h-286q-21 59 -29 109q-133 -136 -342 -136q-161 0 -258.5 84.5t-97.5 231.5zM229 1184l222 293h256l221 -293h-223l-130 155l-126 -155h-220zM354 309q0 -67 47.5 -103t120.5 -36q45 0 89.5 16.5t72.5 40.5q39 33 53.5 81.5t14.5 123.5v82q-35 -22 -201 -53 q-46 -9 -74.5 -18t-60 -25.5t-47 -43.5t-15.5 -65z" />
<glyph unicode="&#xe3;" horiz-adv-x="1157" d="M70 289q0 151 96 225.5t276 101.5q12 2 43 6.5t44 6.5t40 6.5t40 7t35 7t34.5 8.5t28 9t26 11t19.5 12v45q0 84 -46 115t-145 31q-85 0 -128 -38.5t-60 -107.5l-273 23q50 327 478 327q101 0 181.5 -16.5t142.5 -50.5t96 -93t34 -139v-440q0 -115 9.5 -196t41.5 -150 h-286q-21 59 -29 109q-133 -136 -342 -136q-161 0 -258.5 84.5t-97.5 231.5zM201 1188q9 121 65 185.5t154 64.5q55 0 106.5 -19.5t95.5 -39t80 -19.5q76 0 89 80h131q-10 -108 -59 -175t-144 -67q-65 0 -125 19t-107.5 38t-83.5 19q-69 0 -75 -86h-127zM354 309 q0 -67 47.5 -103t120.5 -36q45 0 89.5 16.5t72.5 40.5q39 33 53.5 81.5t14.5 123.5v82q-35 -22 -201 -53q-46 -9 -74.5 -18t-60 -25.5t-47 -43.5t-15.5 -65z" />
<glyph unicode="&#xe4;" horiz-adv-x="1157" d="M70 291q0 151 96 225.5t276 101.5q12 2 43 6.5t44 6.5t40 6.5t40 7t35 7t34.5 8.5t28 9t26 11t19.5 12v45q0 84 -46 115t-145 31q-85 0 -128 -38.5t-60 -107.5l-273 23q50 327 478 327q101 0 181.5 -16.5t142.5 -50.5t96 -93t34 -139v-440q0 -115 9.5 -196t41.5 -150 h-286q-21 59 -29 109q-133 -136 -342 -136q-161 0 -258.5 84.5t-97.5 231.5zM227 1188v239h258v-239h-258zM354 311q0 -67 47.5 -103t120.5 -36q45 0 89.5 16.5t72.5 40.5q39 33 53.5 81.5t14.5 123.5v82q-35 -22 -201 -53q-46 -9 -74.5 -18t-60 -25.5t-47 -43.5t-15.5 -65z M653 1188v239h260v-239h-260z" />
<glyph unicode="&#xe5;" horiz-adv-x="1157" d="M70 289q0 151 96 225.5t276 101.5q12 2 43 6.5t44 6.5t40 6.5t40 7t35 7t34.5 8.5t28 9t26 11t19.5 12v45q0 84 -46 115t-145 31q-85 0 -128 -38.5t-60 -107.5l-273 23q50 327 478 327q101 0 181.5 -16.5t142.5 -50.5t96 -93t34 -139v-440q0 -115 9.5 -196t41.5 -150 h-286q-21 59 -29 109q-133 -136 -342 -136q-161 0 -258.5 84.5t-97.5 231.5zM350 1354q0 92 67 157.5t158 65.5t158.5 -65.5t67.5 -157.5q0 -90 -67.5 -155.5t-158.5 -65.5t-158 65.5t-67 155.5zM354 309q0 -67 47.5 -103t120.5 -36q45 0 89.5 16.5t72.5 40.5 q39 33 53.5 81.5t14.5 123.5v82q-35 -22 -201 -53q-46 -9 -74.5 -18t-60 -25.5t-47 -43.5t-15.5 -65zM477 1354q0 -43 28 -74t70 -31t70.5 31t28.5 74q0 45 -28.5 75.5t-70.5 30.5t-70 -30.5t-28 -75.5z" />
<glyph unicode="&#xe6;" horiz-adv-x="1826" d="M70 289q0 151 96 225.5t276 101.5q190 29 242 45q42 13 64 29q4 28 4 45q0 84 -46 115t-145 31q-85 0 -128 -38.5t-60 -107.5l-273 23q50 327 478 327q108 0 203.5 -29t148.5 -91q63 63 135 91.5t174 28.5q241 0 376.5 -160t135.5 -429q0 -7 -1 -20.5t-1 -20.5h-735 q6 -130 71 -198.5t175 -68.5q76 0 130.5 39.5t73.5 104.5l269 -23q-115 -336 -480 -336q-243 0 -383 164q-69 -78 -189 -121t-255 -43q-161 0 -258.5 84.5t-97.5 231.5zM354 309q0 -67 47.5 -103t120.5 -36q45 0 89.5 16.5t72.5 40.5q39 33 53.5 81.5t14.5 123.5v82 q-35 -22 -201 -53q-46 -9 -74.5 -18t-60 -25.5t-47 -43.5t-15.5 -65zM1018 633h446q-12 116 -68 175.5t-153 59.5q-61 0 -107.5 -25t-70.5 -63.5t-35.5 -75.5t-11.5 -71z" />
<glyph unicode="&#xe7;" horiz-adv-x="1157" d="M82 522q0 257 140.5 410t385.5 153q198 0 327 -93t159 -275l-281 -25q-13 85 -65.5 129.5t-137.5 44.5q-119 0 -179 -89t-60 -240q0 -158 59.5 -249t177.5 -91q182 0 217 209l279 -23q-35 -200 -164 -305t-336 -105q-35 0 -53 2l-27 -41q65 6 115 -6q66 -15 105 -58 t38 -106q-1 -51 -27 -90t-70 -61.5t-97.5 -33.5t-114.5 -11q-124 0 -209 31l23 108q74 -24 180 -24q120 0 123 81q1 33 -20 52.5t-60 21.5l-154 8l78 152q-164 48 -258 187t-94 337z" />
<glyph unicode="&#xe8;" horiz-adv-x="1157" d="M61 524q0 133 42 241t113.5 177t163.5 106t195 37q244 0 378 -157.5t134 -427.5q0 -7 -1 -22.5t-1 -22.5h-735q6 -130 71 -198.5t175 -68.5q76 0 131 39.5t74 104.5l268 -23q-115 -336 -479 -336q-115 0 -211 35.5t-167 103t-111 173t-40 239.5zM244 1477h317l168 -295 h-190zM354 635h447q0 107 -60.5 171t-160.5 64q-50 0 -90 -17t-65 -42.5t-41.5 -58t-23 -62t-6.5 -55.5z" />
<glyph unicode="&#xe9;" horiz-adv-x="1157" d="M61 524q0 133 42 241t113.5 177t163.5 106t195 37q244 0 378 -157.5t134 -427.5q0 -7 -1 -22.5t-1 -22.5h-735q6 -130 71 -198.5t175 -68.5q76 0 131 39.5t74 104.5l268 -23q-115 -336 -479 -336q-115 0 -211 35.5t-167 103t-111 173t-40 239.5zM354 635h447 q0 107 -60.5 171t-160.5 64q-50 0 -90 -17t-65 -42.5t-41.5 -58t-23 -62t-6.5 -55.5zM473 1182l168 295h317l-294 -295h-191z" />
<glyph unicode="&#xea;" horiz-adv-x="1157" d="M61 524q0 133 42 241t113.5 177t163.5 106t195 37q244 0 378 -157.5t134 -427.5q0 -7 -1 -22.5t-1 -22.5h-735q6 -130 71 -198.5t175 -68.5q76 0 131 39.5t74 104.5l268 -23q-115 -336 -479 -336q-115 0 -211 35.5t-167 103t-111 173t-40 239.5zM233 1184l222 293h256 l221 -293h-223l-129 155l-127 -155h-220zM354 635h447q0 107 -60.5 171t-160.5 64q-50 0 -90 -17t-65 -42.5t-41.5 -58t-23 -62t-6.5 -55.5z" />
<glyph unicode="&#xeb;" horiz-adv-x="1157" d="M61 524q0 133 42 241t113.5 177t163.5 106t195 37q244 0 378 -157.5t134 -427.5q0 -7 -1 -22.5t-1 -22.5h-735q6 -130 71 -198.5t175 -68.5q76 0 131 39.5t74 104.5l268 -23q-115 -336 -479 -336q-115 0 -211 35.5t-167 103t-111 173t-40 239.5zM248 1188v239h258v-239 h-258zM354 635h447q0 107 -60.5 171t-160.5 64q-50 0 -90 -17t-65 -42.5t-41.5 -58t-23 -62t-6.5 -55.5zM674 1188v239h260v-239h-260z" />
<glyph unicode="&#xec;" horiz-adv-x="548" d="M-98 1477h317l168 -295h-190zM133 0v1061h287v-1061h-287z" />
<glyph unicode="&#xed;" horiz-adv-x="548" d="M133 0v1061h287v-1061h-287zM150 1182l167 295h318l-295 -295h-190z" />
<glyph unicode="&#xee;" horiz-adv-x="548" d="M-74 1184l221 293h256l222 -293h-224l-129 155l-127 -155h-219zM133 0v1061h287v-1061h-287z" />
<glyph unicode="&#xef;" horiz-adv-x="548" d="M-68 1188v239h258v-239h-258zM133 0v1061h287v-1061h-287zM358 1188v239h260v-239h-260z" />
<glyph unicode="&#xf0;" horiz-adv-x="1245" d="M76 518q0 102 33 197t92.5 169.5t149 119.5t194.5 45q134 0 219 -56l31 -20q-23 50 -47 84.5t-69 84.5t-61 70l-239 -116l-82 104l219 107q-94 79 -194 139l239 72q91 -59 156 -113l217 108l76 -110l-189 -92q348 -342 348 -744q0 -262 -148.5 -428t-402.5 -166 q-242 0 -392 153t-150 392zM369 528q0 -148 65 -239.5t187 -91.5q123 0 190.5 92t67.5 235q0 135 -71 226.5t-190 91.5t-184 -88.5t-65 -225.5z" />
<glyph unicode="&#xf1;" horiz-adv-x="1232" d="M127 0v1061h268v-154h4q60 88 147.5 133t188.5 45q107 0 181.5 -30t115.5 -88.5t58.5 -133.5t17.5 -178v-655h-287v641q0 99 -43.5 161t-136.5 62q-83 0 -136.5 -40.5t-70.5 -96.5q-20 -64 -20 -209v-518h-287zM268 1188q9 121 65 185.5t154 64.5q55 0 106.5 -19.5 t96 -39t80.5 -19.5q75 0 88 80h131q-10 -108 -59 -175t-144 -67q-65 0 -124.5 19t-107 38t-83.5 19q-70 0 -76 -86h-127z" />
<glyph unicode="&#xf2;" horiz-adv-x="1251" d="M76 537q0 245 154 396.5t393 151.5q154 0 277 -64t197 -191.5t74 -299.5q0 -88 -22.5 -170t-68.5 -152.5t-110 -123t-153.5 -82t-193.5 -29.5q-132 0 -237.5 43.5t-172.5 120.5t-102 179t-35 221zM260 1477h318l167 -295h-190zM365 528q0 -147 66.5 -239t191.5 -92 t191.5 92.5t66.5 240.5q0 147 -67 239.5t-191 92.5q-125 0 -191.5 -92.5t-66.5 -241.5z" />
<glyph unicode="&#xf3;" horiz-adv-x="1251" d="M76 537q0 245 154 396.5t393 151.5q154 0 277 -64t197 -191.5t74 -299.5q0 -88 -22.5 -170t-68.5 -152.5t-110 -123t-153.5 -82t-193.5 -29.5q-132 0 -237.5 43.5t-172.5 120.5t-102 179t-35 221zM365 528q0 -147 66.5 -239t191.5 -92t191.5 92.5t66.5 240.5 q0 147 -67 239.5t-191 92.5q-125 0 -191.5 -92.5t-66.5 -241.5zM510 1182l168 295h317l-295 -295h-190z" />
<glyph unicode="&#xf4;" horiz-adv-x="1251" d="M76 537q0 245 154 396.5t393 151.5q154 0 277 -64t197 -191.5t74 -299.5q0 -88 -22.5 -170t-68.5 -152.5t-110 -123t-153.5 -82t-193.5 -29.5q-132 0 -237.5 43.5t-172.5 120.5t-102 179t-35 221zM276 1184l222 293h256l221 -293h-223l-129 155l-127 -155h-220zM365 528 q0 -147 66.5 -239t191.5 -92t191.5 92.5t66.5 240.5q0 147 -67 239.5t-191 92.5q-125 0 -191.5 -92.5t-66.5 -241.5z" />
<glyph unicode="&#xf5;" horiz-adv-x="1251" d="M76 537q0 245 154 396.5t393 151.5q154 0 277 -64t197 -191.5t74 -299.5q0 -88 -22.5 -170t-68.5 -152.5t-110 -123t-153.5 -82t-193.5 -29.5q-132 0 -237.5 43.5t-172.5 120.5t-102 179t-35 221zM264 1188q9 121 65 185.5t154 64.5q55 0 106.5 -19.5t96 -39t80.5 -19.5 q75 0 88 80h131q-10 -108 -59 -175t-144 -67q-65 0 -124.5 19t-107 38t-83.5 19q-70 0 -76 -86h-127zM365 528q0 -147 66.5 -239t191.5 -92t191.5 92.5t66.5 240.5q0 147 -67 239.5t-191 92.5q-125 0 -191.5 -92.5t-66.5 -241.5z" />
<glyph unicode="&#xf6;" horiz-adv-x="1251" d="M76 537q0 245 154 396.5t393 151.5q154 0 277 -64t197 -191.5t74 -299.5q0 -88 -22.5 -170t-68.5 -152.5t-110 -123t-153.5 -82t-193.5 -29.5q-132 0 -237.5 43.5t-172.5 120.5t-102 179t-35 221zM285 1188v239h258v-239h-258zM365 528q0 -147 66.5 -239t191.5 -92 t191.5 92.5t66.5 240.5q0 147 -67 239.5t-191 92.5q-125 0 -191.5 -92.5t-66.5 -241.5zM711 1188v239h260v-239h-260z" />
<glyph unicode="&#xf7;" horiz-adv-x="1175" d="M260 397v252h658v-252h-658zM436 0v297h301v-297h-301zM436 754v299h301v-299h-301z" />
<glyph unicode="&#xf8;" horiz-adv-x="1247" d="M76 532q0 245 151 399t396 154q187 0 323 -92l107 123l92 -80l-109 -123q135 -151 135 -385q0 -243 -153 -399t-395 -156q-184 0 -324 93l-117 -134l-94 80l119 135q-131 153 -131 385zM360 535q0 -105 29 -179l395 453q-62 59 -159 59q-127 0 -196 -93t-69 -240z M459 250q66 -57 164 -57q127 0 195.5 92.5t68.5 238.5q0 99 -31 181z" />
<glyph unicode="&#xf9;" horiz-adv-x="1232" d="M125 383v678h287v-635q0 -50 8 -89t27 -72.5t56 -51.5t89 -18q79 0 132 40.5t74 99t21 130.5v596h287v-1061h-270v154h-7q-56 -87 -144.5 -134t-188.5 -47q-193 0 -282 103t-89 307zM252 1477h317l168 -295h-190z" />
<glyph unicode="&#xfa;" horiz-adv-x="1232" d="M125 383v678h287v-635q0 -50 8 -89t27 -72.5t56 -51.5t89 -18q79 0 132 40.5t74 99t21 130.5v596h287v-1061h-270v154h-7q-56 -87 -144.5 -134t-188.5 -47q-193 0 -282 103t-89 307zM508 1182l168 295h317l-295 -295h-190z" />
<glyph unicode="&#xfb;" horiz-adv-x="1232" d="M125 383v678h287v-635q0 -50 8 -89t27 -72.5t56 -51.5t89 -18q79 0 132 40.5t74 99t21 130.5v596h287v-1061h-270v154h-7q-56 -87 -144.5 -134t-188.5 -47q-193 0 -282 103t-89 307zM266 1184l221 293h256l222 -293h-224l-129 155l-127 -155h-219z" />
<glyph unicode="&#xfc;" horiz-adv-x="1232" d="M125 383v678h287v-635q0 -50 8 -89t27 -72.5t56 -51.5t89 -18q79 0 132 40.5t74 99t21 130.5v596h287v-1061h-270v154h-7q-56 -87 -144.5 -134t-188.5 -47q-193 0 -282 103t-89 307zM272 1188v239h258v-239h-258zM698 1188v239h260v-239h-260z" />
<glyph unicode="&#xfd;" horiz-adv-x="1101" d="M0 1061h305l203 -604l45 -146h2l45 146l195 604h295l-443 -1200q-53 -145 -141.5 -203.5t-239.5 -58.5q-52 0 -166 16l-16 227q74 -12 154 -12q72 0 111.5 35t39.5 104q0 55 -29 137zM449 1182l167 295h318l-295 -295h-190z" />
<glyph unicode="&#xfe;" horiz-adv-x="1257" d="M125 -387v1851h285v-534h2q67 83 141 119t166 36q213 0 338 -157.5t125 -401.5q0 -158 -55 -283t-159.5 -197.5t-242.5 -72.5q-188 0 -313 158h-2v-518h-285zM403 541q0 -166 65.5 -256t184.5 -90q116 0 178 88.5t62 242.5q0 159 -63.5 250.5t-182.5 91.5 q-118 0 -181 -89t-63 -238z" />
<glyph unicode="&#xff;" horiz-adv-x="1101" d="M0 1061h305l203 -604l45 -146h2l45 146l195 604h295l-443 -1200q-53 -145 -141.5 -203.5t-239.5 -58.5q-52 0 -166 16l-16 227q74 -12 154 -12q72 0 111.5 35t39.5 104q0 55 -29 137zM209 1188v239h258v-239h-258zM635 1188v239h260v-239h-260z" />
<glyph unicode="&#x152;" horiz-adv-x="2142" d="M74 729q0 153 40 289t116 243t197.5 169.5t274.5 62.5q113 0 212 -42t159 -120h4v133h971v-260h-692v-319h633v-250h-633v-375h712v-260h-991v141h-4q-59 -84 -154 -127t-212 -43q-125 0 -229 39.5t-178 109t-125.5 165t-76 207.5t-24.5 237zM387 741q0 -82 9.5 -151.5 t34.5 -136.5t63.5 -113.5t101 -75t143.5 -28.5q162 0 243 111.5t81 311.5v148q0 200 -80.5 312t-239.5 112q-177 0 -266.5 -130t-89.5 -360z" />
<glyph unicode="&#x153;" horiz-adv-x="1912" d="M76 530q0 155 64 280.5t186.5 200t281.5 74.5q112 0 208.5 -38.5t158.5 -118.5q61 76 155.5 116.5t198.5 40.5q108 0 194 -32t144 -88t96.5 -136t55.5 -173t18 -203h-727q3 -122 66 -192.5t172 -70.5q143 0 200 148l277 -23q-50 -161 -176 -251.5t-303 -90.5 q-112 0 -212.5 40.5t-164.5 123.5q-65 -83 -164 -123.5t-211 -40.5q-155 0 -274 74.5t-181.5 200.5t-62.5 282zM367 518q0 -56 13.5 -110t40.5 -102t74.5 -77.5t108.5 -29.5q119 0 179.5 94t60.5 244q0 139 -59.5 231t-176.5 92q-119 0 -180 -93.5t-61 -248.5zM1110 633h446 q-6 115 -65.5 177t-161.5 62q-94 0 -153.5 -63t-65.5 -176z" />
<glyph unicode="&#x178;" horiz-adv-x="1366" d="M-10 1464h354l272 -460l72 -121h2l70 121l266 460h350l-540 -876v-588h-308v594zM346 1599v240h258v-240h-258zM772 1599v240h260v-240h-260z" />
<glyph unicode="&#x2c6;" horiz-adv-x="608" d="M-45 1184l221 293h256l221 -293h-223l-129 155l-127 -155h-219z" />
<glyph unicode="&#x2dc;" horiz-adv-x="598" d="M-61 1188q9 121 65 185.5t154 64.5q55 0 106.5 -19.5t95.5 -39t80 -19.5q75 0 88 80h131q-10 -108 -58.5 -175t-143.5 -67q-65 0 -125 19t-107.5 38t-83.5 19q-69 0 -75 -86h-127z" />
<glyph unicode="&#x2000;" horiz-adv-x="983" />
<glyph unicode="&#x2001;" horiz-adv-x="1966" />
<glyph unicode="&#x2002;" horiz-adv-x="983" />
<glyph unicode="&#x2003;" horiz-adv-x="1966" />
<glyph unicode="&#x2004;" horiz-adv-x="655" />
<glyph unicode="&#x2005;" horiz-adv-x="491" />
<glyph unicode="&#x2006;" horiz-adv-x="327" />
<glyph unicode="&#x2007;" horiz-adv-x="327" />
<glyph unicode="&#x2008;" horiz-adv-x="245" />
<glyph unicode="&#x2009;" horiz-adv-x="393" />
<glyph unicode="&#x200a;" horiz-adv-x="109" />
<glyph unicode="&#x2010;" horiz-adv-x="747" d="M82 412v266h584v-266h-584z" />
<glyph unicode="&#x2011;" horiz-adv-x="747" d="M82 412v266h584v-266h-584z" />
<glyph unicode="&#x2012;" horiz-adv-x="747" d="M82 412v266h584v-266h-584z" />
<glyph unicode="&#x2013;" horiz-adv-x="1081" d="M0 430v229h1081v-229h-1081z" />
<glyph unicode="&#x2014;" horiz-adv-x="2048" d="M0 430v229h2048v-229h-2048z" />
<glyph unicode="&#x2018;" horiz-adv-x="569" d="M143 838v292q0 133 73.5 222.5t197.5 117.5l26 -124q-80 -24 -114.5 -74t-34.5 -135h139v-299h-287z" />
<glyph unicode="&#x2019;" horiz-adv-x="569" d="M127 954q80 24 114.5 74t34.5 135h-139v299h287v-293q0 -133 -73 -222.5t-197 -117.5z" />
<glyph unicode="&#x201a;" horiz-adv-x="569" d="M127 -209q80 24 114.5 74t34.5 135h-139v299h287v-293q0 -133 -73 -222.5t-197 -117.5z" />
<glyph unicode="&#x201c;" horiz-adv-x="987" d="M121 838v292q0 133 73 222.5t197 117.5l27 -124q-80 -24 -115 -74t-35 -135h140v-299h-287zM573 838v292q0 133 73.5 222.5t197.5 117.5l26 -124q-80 -24 -114.5 -74t-34.5 -135h139v-299h-287z" />
<glyph unicode="&#x201d;" horiz-adv-x="987" d="M109 958q80 24 114.5 74t34.5 135h-139v299h287v-292q0 -133 -73.5 -222.5t-197.5 -117.5zM561 958q80 24 115 74t35 135h-140v299h287v-292q0 -133 -73 -222.5t-197 -117.5z" />
<glyph unicode="&#x201e;" horiz-adv-x="987" d="M109 -209q80 24 114.5 74t34.5 135h-139v299h287v-293q0 -133 -73.5 -222.5t-197.5 -117.5zM561 -209q80 24 115 74t35 135h-140v299h287v-293q0 -133 -73 -222.5t-197 -117.5z" />
<glyph unicode="&#x2022;" horiz-adv-x="870" d="M106 727q0 137 97 233.5t233 96.5t233 -96.5t97 -233.5t-97 -233.5t-233 -96.5t-233 96.5t-97 233.5z" />
<glyph unicode="&#x2026;" horiz-adv-x="2048" d="M190 0v297h302v-297h-302zM874 0v297h300v-297h-300zM1556 0v297h299v-297h-299z" />
<glyph unicode="&#x202f;" horiz-adv-x="393" />
<glyph unicode="&#x2039;" horiz-adv-x="587" d="M90 475v139l320 359l110 -123l-223 -305l223 -305l-110 -123z" />
<glyph unicode="&#x203a;" horiz-adv-x="587" d="M70 240l223 305l-223 305l110 123l320 -359v-139l-320 -358z" />
<glyph unicode="&#x205f;" horiz-adv-x="491" />
<glyph unicode="&#x20ac;" horiz-adv-x="1361" d="M41 469v195h92q-2 23 -2 77q0 53 2 78h-92v195h125q60 221 213.5 350t378.5 129q141 0 256.5 -54t194.5 -163t104 -260l-289 -35q-19 114 -91.5 182t-178.5 68q-107 0 -179.5 -56.5t-105.5 -160.5h350v-195h-387q-2 -27 -2 -76q0 -56 2 -79h387v-195h-354 q30 -114 104 -176t185 -62q115 0 189.5 86t88.5 232l289 -45q-41 -254 -192 -393.5t-375 -139.5q-223 0 -377 135t-213 363h-123z" />
<glyph unicode="&#x2122;" horiz-adv-x="2048" d="M170 1311v153h678v-153h-244v-678h-186v678h-248zM952 633v831h269l180 -561l180 561h266v-831h-176v624h-2l-196 -624h-146l-197 624h-2v-624h-176z" />
<glyph unicode="&#x25fc;" horiz-adv-x="1064" d="M0 0v1065h1065v-1065h-1065z" />
</font>
</defs>
</svg>
